<svg width="960" height="320" xmlns="http://www.w3.org/2000/svg" version="1.1">

 <g>
  <title>Layer 1</title>
  <path stroke="null" id="svg_1" d="m0,0l960,0l0,320l-960,0l0,-320z" opacity="undefined" fill="#ffffff"/>
  <path id="svg_2" fill="#c084fc" d="m0,305l32,-14.7c32,-14.6 96,-44 160,-44.3c64,-0.3 128,28.3 192,45.8c64,17.5 128,23.9 192,26.2c64,2.3 128,0.7 192,-9.2c64,-9.8 128,-27.8 160,-36.8l32,-9l0,-263l-32,0c-32,0 -96,0 -160,0c-64,0 -128,0 -192,0c-64,0 -128,0 -192,0c-64,0 -128,0 -192,0c-64,0 -128,0 -160,0l-32,0l0,305z"/>
  <path id="svg_3" fill="#b87afa" d="m0,289l32,-11.3c32,-11.4 96,-34 160,-41.9c64,-7.8 128,-0.8 192,8.5c64,9.4 128,21 192,19.4c64,-1.7 128,-16.7 192,-25.7c64,-9 128,-12 160,-13.5l32,-1.5l0,-223l-32,0c-32,0 -96,0 -160,0c-64,0 -128,0 -192,0c-64,0 -128,0 -192,0c-64,0 -128,0 -192,0c-64,0 -128,0 -160,0l-32,0l0,289z"/>
  <path id="svg_4" fill="#af6ff7" d="m0,216l32,-8.5c32,-8.5 96,-25.5 160,-24.8c64,0.6 128,19 192,20.1c64,1.2 128,-14.8 192,-16.5c64,-1.6 128,11 192,25.5c64,14.5 128,30.9 160,39l32,8.2l0,-259l-32,0c-32,0 -96,0 -160,0c-64,0 -128,0 -192,0c-64,0 -128,0 -192,0c-64,0 -128,0 -192,0c-64,0 -128,0 -160,0l-32,0l0,216z"/>
  <path id="svg_5" fill="#a665f5" d="m0,140l32,11.3c32,11.4 96,34 160,39.5c64,5.5 128,-6.1 192,-5.3c64,0.8 128,14.2 192,11c64,-3.2 128,-22.8 192,-29.3c64,-6.5 128,0.1 160,3.5l32,3.3l0,-174l-32,0c-32,0 -96,0 -160,0c-64,0 -128,0 -192,0c-64,0 -128,0 -192,0c-64,0 -128,0 -192,0c-64,0 -128,0 -160,0l-32,0l0,140z"/>
  <path id="svg_6" fill="#9c5bf3" d="m0,128l32,8c32,8 96,24 160,30.3c64,6.4 128,3 192,-7.1c64,-10.2 128,-27.2 192,-37.4c64,-10.1 128,-13.5 192,-14.5c64,-1 128,0.4 160,1l32,0.7l0,-109l-32,0c-32,0 -96,0 -160,0c-64,0 -128,0 -192,0c-64,0 -128,0 -192,0c-64,0 -128,0 -192,0c-64,0 -128,0 -160,0l-32,0l0,128z"/>
  <path id="svg_7" fill="#9250f1" d="m0,86l32,7.8c32,7.9 96,23.5 160,29.7c64,6.2 128,2.8 192,4.2c64,1.3 128,7.3 192,5.1c64,-2.1 128,-12.5 192,-21.3c64,-8.8 128,-16.2 160,-19.8l32,-3.7l0,-88l-32,0c-32,0 -96,0 -160,0c-64,0 -128,0 -192,0c-64,0 -128,0 -192,0c-64,0 -128,0 -192,0c-64,0 -128,0 -160,0l-32,0l0,86z"/>
  <path id="svg_8" fill="#8745ef" d="m0,57l32,7.3c32,7.4 96,22 160,29.2c64,7.2 128,6.8 192,0.8c64,-6 128,-17.6 192,-19.8c64,-2.2 128,5.2 192,11.3c64,6.2 128,11.2 160,13.7l32,2.5l0,-102l-32,0c-32,0 -96,0 -160,0c-64,0 -128,0 -192,0c-64,0 -128,0 -192,0c-64,0 -128,0 -192,0c-64,0 -128,0 -160,0l-32,0l0,57z"/>
  <path id="svg_9" fill="#7c3aed" d="m0,39l32,4.3c32,4.4 96,13 160,12.9c64,-0.2 128,-9.2 192,-15.5c64,-6.4 128,-10 192,-12.5c64,-2.5 128,-3.9 192,2.5c64,6.3 128,20.3 160,27.3l32,7l0,-65l-32,0c-32,0 -96,0 -160,0c-64,0 -128,0 -192,0c-64,0 -128,0 -192,0c-64,0 -128,0 -192,0c-64,0 -128,0 -160,0l-32,0l0,39z"/>
 </g>
</svg>