<?xml version="1.0" standalone="no"?>
<!DOCTYPE svg PUBLIC "-//W3C//DTD SVG 20010904//EN"
 "http://www.w3.org/TR/2001/REC-SVG-20010904/DTD/svg10.dtd">
<svg version="1.0" xmlns="http://www.w3.org/2000/svg"
 width="512.000000pt" height="512.000000pt" viewBox="0 0 512.000000 512.000000"
 preserveAspectRatio="xMidYMid meet">
<metadata>
Created by potrace 1.14, written by Peter Selinger 2001-2017
</metadata>
<g transform="translate(0.000000,512.000000) scale(0.100000,-0.100000)"
fill="#000000" stroke="none">
<path d="M1149 5110 c-134 -21 -299 -74 -418 -134 -88 -45 -229 -146 -310
-221 -191 -180 -327 -418 -392 -685 -20 -82 -23 -121 -24 -290 0 -209 10 -280
60 -435 73 -222 172 -372 404 -608 l175 -178 -155 -157 c-181 -183 -219 -228
-289 -342 -94 -151 -158 -323 -186 -503 -20 -123 -14 -373 11 -484 107 -485
451 -863 917 -1012 363 -115 782 -67 1104 129 112 68 170 116 346 289 l168
164 177 -174 c278 -273 463 -381 766 -446 117 -26 418 -25 537 0 268 58 494
180 686 371 191 192 313 418 371 686 25 119 26 420 0 537 -65 303 -173 488
-446 766 l-174 177 159 163 c168 170 223 236 294 351 195 320 244 741 129
1104 -149 467 -527 809 -1014 918 -113 25 -363 30 -486 9 -177 -29 -346 -90
-484 -175 -116 -71 -182 -126 -352 -294 l-163 -159 -177 174 c-275 270 -461
379 -753 444 -87 19 -393 29 -481 15z m346 -919 c82 -29 131 -66 282 -214
l144 -141 -318 -319 -318 -318 -150 153 c-167 171 -205 231 -225 351 -45 281
191 535 475 510 33 -3 83 -13 110 -22z m2368 14 c230 -49 386 -274 348 -502
-21 -123 -58 -181 -225 -351 l-150 -153 -318 318 -319 318 153 150 c165 161
217 197 321 220 81 18 108 18 190 0z m-983 -1330 l315 -315 -318 -318 -317
-317 -317 317 -318 318 315 315 c173 173 317 315 320 315 3 0 147 -142 320
-315z m-1113 -1741 c-121 -119 -167 -158 -218 -182 -131 -64 -267 -64 -399 0
-169 82 -272 280 -241 466 21 121 57 178 224 349 l151 154 318 -318 319 -318
-154 -151z m2400 416 c189 -385 -212 -786 -597 -597 -50 25 -99 65 -218 181
l-153 150 318 318 318 319 150 -153 c118 -120 157 -167 182 -218z"/>
</g>
</svg>
